<svg version="1.1" id="Layer_1" xmlns="http://www.w3.org/2000/svg" xmlns:xlink="http://www.w3.org/1999/xlink" x="0px" y="0px"
	 width="100%" viewBox="0 0 92 102" enable-background="new 0 0 92 102" xml:space="preserve">
<path fill="#F03618" opacity="1.000000" stroke="none" 
	d="
M1.000000,65.000000 
	C1.000000,61.969406 1.000000,58.938812 1.219216,55.795979 
	C4.592527,53.442810 7.746622,51.201881 11.124950,49.164291 
	C11.927132,49.931061 12.505080,50.494492 13.222455,51.434986 
	C15.210599,52.207329 17.056984,52.933891 18.908394,52.946926 
	C38.605190,53.085648 58.302780,53.111126 78.047852,53.493111 
	C79.079353,55.217903 80.063156,56.617325 80.933212,58.333851 
	C67.959854,71.855042 55.094070,85.053123 42.249054,98.271393 
	C40.773380,99.789948 39.413544,101.421066 38.000000,103.000000 
	C37.250000,103.000000 36.500000,103.000000 35.375771,102.542946 
	C35.313984,98.685158 35.891682,95.283241 35.876381,91.883980 
	C35.853729,86.849968 35.410355,81.817856 35.344711,76.481110 
	C35.656136,74.438629 35.768944,72.699974 35.918617,70.591339 
	C33.052063,68.814201 30.238998,66.467216 27.228123,66.177742 
	C18.528086,65.341324 9.748408,65.333282 1.000000,65.000000 
z"/>
<path fill="#000000" opacity="1.000000" stroke="none" 
	d="
M38.468658,103.000000 
	C39.413544,101.421066 40.773380,99.789948 42.249054,98.271393 
	C55.094070,85.053123 67.959854,71.855042 81.249420,58.144447 
	C85.452919,54.091961 89.226456,50.545982 93.000000,47.000000 
	C93.000000,65.592789 93.000000,84.185585 93.000000,103.000000 
	C74.979713,103.000000 56.958515,103.000000 38.468658,103.000000 
z"/>
<path fill="#EF3618" opacity="1.000000" stroke="none" 
	d="
M93.000000,46.600006 
	C89.226456,50.545982 85.452919,54.091961 81.363167,57.827339 
	C80.063156,56.617325 79.079353,55.217903 78.264389,53.420456 
	C78.433220,53.022427 78.885475,52.958115 79.187660,52.928467 
	C80.029686,52.266865 81.115005,51.480129 80.989281,51.037022 
	C80.766838,50.253101 79.807671,49.678223 79.156830,49.015858 
	C78.771553,49.645187 78.386284,50.274521 77.605782,50.776367 
	C69.153320,50.453213 61.096077,50.257549 52.847397,49.932083 
	C52.091270,49.888641 51.526585,49.975002 50.511299,50.046768 
	C47.050995,50.034260 44.041294,50.036339 40.773758,50.017548 
	C40.344166,49.982048 40.172421,49.967422 39.914429,49.580280 
	C38.837872,48.496090 37.863159,47.195339 36.854698,47.168617 
	C30.447517,46.998871 24.014353,46.852074 17.633638,47.309650 
	C16.024153,47.425068 14.574507,49.769371 13.039616,51.061714 
	C13.027823,51.034008 13.083028,51.057926 13.083029,51.057926 
	C12.505080,50.494492 11.927132,49.931061 11.171726,48.797619 
	C11.320055,47.336323 11.419394,46.241596 12.008005,45.586441 
	C16.140726,40.986507 20.314081,36.419582 24.588081,31.950787 
	C33.810707,22.307819 43.112030,12.740117 52.333229,3.095796 
	C52.788322,2.619819 52.788170,1.708568 53.000000,1.000000 
	C54.388889,1.000000 55.777779,1.000000 57.589447,1.439947 
	C57.341579,11.303410 56.732525,20.731937 55.966408,30.147686 
	C55.703377,33.380341 56.651863,35.512264 60.025764,36.397987 
	C60.039616,36.624401 60.051857,37.077908 60.030617,37.287239 
	C60.009377,37.496567 60.026134,37.917046 60.220940,38.249336 
	C69.400612,38.712833 78.385422,38.849129 87.370682,38.942768 
	C87.572830,38.944874 87.780029,38.462662 88.328568,38.245106 
	C90.114838,39.855896 91.557419,41.427948 93.000000,43.000000 
	C93.000000,44.066669 93.000000,45.133339 93.000000,46.600006 
z"/>
<path fill="#000000" opacity="1.000000" stroke="none" 
	d="
M52.531342,1.000000 
	C52.788170,1.708568 52.788322,2.619819 52.333229,3.095796 
	C43.112030,12.740117 33.810707,22.307819 24.588081,31.950787 
	C20.314081,36.419582 16.140726,40.986507 12.008005,45.586441 
	C11.419394,46.241596 11.320055,47.336323 10.947494,48.594280 
	C7.746622,51.201881 4.592527,53.442810 1.219216,55.341869 
	C1.000000,37.074612 1.000000,19.149221 1.000000,1.000000 
	C18.020241,1.000000 35.041462,1.000000 52.531342,1.000000 
z"/>
<path fill="#000000" opacity="1.000000" stroke="none" 
	d="
M93.000000,42.531342 
	C91.557419,41.427948 90.114838,39.855896 87.865738,38.173637 
	C78.048187,38.014637 69.037163,37.965839 60.026134,37.917046 
	C60.026134,37.917046 60.009377,37.496567 60.493896,37.254730 
	C69.584442,37.012890 78.190475,37.012890 86.796501,37.012890 
	C86.792313,36.732449 86.788116,36.452011 86.783928,36.171570 
	C77.859924,36.171570 68.935921,36.171570 60.011917,36.171570 
	C56.651863,35.512264 55.703377,33.380341 55.966408,30.147686 
	C56.732525,20.731937 57.341579,11.303410 58.006111,1.439947 
	C69.599976,1.000000 81.199944,1.000000 93.000000,1.000000 
	C93.000000,14.686912 93.000000,28.374798 93.000000,42.531342 
z"/>
<path fill="#000000" opacity="1.000000" stroke="none" 
	d="
M35.146103,76.784935 
	C35.410355,81.817856 35.853729,86.849968 35.876381,91.883980 
	C35.891682,95.283241 35.313984,98.685158 35.000771,102.542946 
	C23.735985,103.000000 12.471971,103.000000 1.000000,103.000000 
	C1.000000,90.646553 1.000000,78.291931 1.000000,65.468658 
	C9.748408,65.333282 18.528086,65.341324 27.228123,66.177742 
	C30.238998,66.467216 33.052063,68.814201 35.593548,70.799484 
	C35.203106,73.180038 35.174603,74.982491 35.146103,76.784935 
z"/>
<path fill="#000000" opacity="1.000000" stroke="none" 
	d="
M78.885475,52.958115 
	C78.885475,52.958115 78.433220,53.022427 78.216690,53.095085 
	C58.302780,53.111126 38.605190,53.085648 18.908394,52.946926 
	C17.056984,52.933891 15.210599,52.207329 13.222454,51.434986 
	C13.083028,51.057926 13.027823,51.034008 13.367346,51.023125 
	C14.141948,50.955273 14.577028,50.898312 15.333234,50.912125 
	C16.090269,51.029289 16.526178,51.075676 17.216587,51.470757 
	C37.942558,51.893421 58.414028,51.967392 78.922325,52.270554 
	C78.959152,52.499741 78.885475,52.958115 78.885475,52.958115 
z"/>
<path fill="#FF0000" opacity="1.000000" stroke="none" 
	d="
M35.344711,76.481110 
	C35.174603,74.982491 35.203106,73.180038 35.556686,71.169449 
	C35.768944,72.699974 35.656136,74.438629 35.344711,76.481110 
z"/>
<path fill="#FF0000" opacity="1.000000" stroke="none" 
	d="
M78.885498,52.041363 
	C58.414028,51.967392 37.942558,51.893421 17.684132,51.437653 
	C25.608650,50.716709 33.320122,50.377563 41.031597,50.038418 
	C44.041294,50.036339 47.050995,50.034260 50.696621,50.193150 
	C51.901314,50.256706 52.470074,50.159294 53.038837,50.061882 
	C61.096077,50.257549 69.153320,50.453213 77.782425,50.943165 
	C78.575386,51.476341 78.752457,51.744312 78.885498,52.041363 
z"/>
<path fill="#F03618" opacity="1.000000" stroke="none" 
	d="
M15.012109,50.841347 
	C14.577028,50.898312 14.141948,50.955273 13.379138,51.050827 
	C14.574507,49.769371 16.024153,47.425068 17.633638,47.309650 
	C24.014353,46.852074 30.447517,46.998871 36.854698,47.168617 
	C37.863159,47.195339 38.837872,48.496090 39.445816,49.592949 
	C31.046333,50.265877 23.029221,50.553612 15.012109,50.841347 
z"/>
<path fill="#FF3A1A" opacity="1.000000" stroke="none" 
	d="
M60.220940,38.249336 
	C69.037163,37.965839 78.048187,38.014637 87.522041,38.134903 
	C87.780029,38.462662 87.572830,38.944874 87.370682,38.942768 
	C78.385422,38.849129 69.400612,38.712833 60.220940,38.249336 
z"/>
<path fill="#FF4000" opacity="1.000000" stroke="none" 
	d="
M60.025764,36.397987 
	C68.935921,36.171570 77.859924,36.171570 86.783928,36.171570 
	C86.788116,36.452011 86.792313,36.732449 86.796501,37.012890 
	C78.190475,37.012890 69.584442,37.012890 60.515137,37.045399 
	C60.051857,37.077908 60.039616,36.624401 60.025764,36.397987 
z"/>
<path fill="#FF4100" opacity="1.000000" stroke="none" 
	d="
M15.333234,50.912125 
	C23.029221,50.553612 31.046333,50.265877 39.532059,49.965469 
	C40.172421,49.967422 40.344166,49.982048 40.773758,50.017548 
	C33.320122,50.377563 25.608650,50.716709 17.429632,51.088959 
	C16.526178,51.075676 16.090269,51.029289 15.333234,50.912125 
z"/>
<path fill="#F03618" opacity="1.000000" stroke="none" 
	d="
M78.922325,52.270554 
	C78.752457,51.744312 78.575386,51.476341 78.177658,51.070648 
	C78.386284,50.274521 78.771553,49.645187 79.156830,49.015858 
	C79.807671,49.678223 80.766838,50.253101 80.989281,51.037022 
	C81.115005,51.480129 80.029686,52.266865 79.187660,52.928467 
	C78.885475,52.958115 78.959152,52.499741 78.922325,52.270554 
z"/>
<path fill="#F03618" opacity="1.000000" stroke="none" 
	d="
M52.847397,49.932083 
	C52.470074,50.159294 51.901314,50.256706 51.147224,50.207741 
	C51.526585,49.975002 52.091270,49.888641 52.847397,49.932083 
z"/>
</svg>